<svg id="Capa_1" enable-background="new 0 0 512 512" height="512" viewBox="0 0 512 512" width="512" xmlns="http://www.w3.org/2000/svg"><g><path d="m481.976 80.016h-50.052v-27.431l-112.686-21.516c-14.652-18.882-37.542-31.069-63.238-31.069s-48.586 12.187-63.238 31.069l-112.686 21.516v27.431h-50.052v30h50.052v30.024h40.828v311.912h90.072v60.048h90.048v-60.048h90.072v-311.912h40.828v-30.024h50.052zm-225.976-50.016c27.585 0 50.028 22.442 50.028 50.028 0 27.585-22.443 50.027-50.028 50.027s-50.028-22.442-50.028-50.027c0-27.586 22.443-50.028 50.028-50.028zm-145.924 47.398 67.416-12.872c-.989 5.018-1.52 10.198-1.52 15.502 0 10.611 2.094 20.737 5.861 30.012h-71.756v-32.642zm100.876 284.502v-15.024c0-24.837 20.207-45.044 45.052-45.044 24.837 0 45.043 20.207 45.043 45.044v15.024zm30.024 120.1v-90.1h30.048v90.1zm120.12-60.048h-60.072v-30.052h30.024v-45.024c0-41.379-33.665-75.044-75.052-75.044-41.379 0-75.043 33.665-75.043 75.044v45.024h30.024v30.052h-60.072v-281.912h52.237c14.11 12.443 32.612 20.016 52.859 20.016s38.75-7.573 52.859-20.016h52.237v281.912zm40.828-311.912h-71.756c3.767-9.275 5.861-19.401 5.861-30.012 0-5.303-.531-10.484-1.52-15.502l67.416 12.872v32.642z"/><path d="m210.96 211.784h90.08v30h-90.08z"/></g></svg>