<svg id="Capa_1" enable-background="new 0 0 512 512" height="512" viewBox="0 0 512 512" width="512" xmlns="http://www.w3.org/2000/svg"><g><path d="m383.571 116.889-147.587-20.016 20.016 351.342h127.571z" fill="#ffda44"/><path d="m128.429 116.889v331.326h127.571v-351.342z" fill="#fff68e"/><path d="m481.976 116.889h-55.036l-20.016-30h75.052z" fill="#07485e"/><path d="m85.06 116.889h-55.036v-30h75.052z" fill="#07485e"/><path d="m287.893 512v-127.575l-51.909-20.016 20.016 147.591z" fill="#04303e"/><path d="m224.107 512h31.893v-147.591l-31.893 20.016z" fill="#07485e"/><path d="m198.047 31.53-112.987 21.573v63.786h170.94v-85.359z" fill="#ffda44"/><path d="m426.94 53.103-112.987-21.573h-57.953v85.359h170.94z" fill="#ff9f22"/><path d="m256 0-20.016 69.075 20.016 69.076c38.089 0 69.076-30.987 69.076-69.075 0-38.089-30.987-69.076-69.076-69.076z" fill="#ebebf0"/><path d="m186.924 69.076c0 38.087 30.987 69.075 69.076 69.075v-138.151c-38.089 0-69.076 30.987-69.076 69.076z" fill="#fff5f5"/><path d="m295.076 69.076c0-21.547-17.53-39.076-39.076-39.076l-20.016 39.075 20.016 39.075c21.546 0 39.076-17.528 39.076-39.074z" fill="#ff9f22"/><path d="m216.924 69.076c0 21.546 17.529 39.075 39.076 39.075v-78.151c-21.546 0-39.076 17.529-39.076 39.076z" fill="#ffda44"/><path d="m303.844 228.727h-47.844l-10.008 15 10.008 15h47.844z" fill="#ff9f22"/><path d="m208.156 228.727h47.844v30h-47.844z" fill="#ffda44"/><path d="m319.785 352.532c0-35.225-28.556-63.781-63.781-63.781h-.004l-20.016 52.749 20.016 42.925h63.785z" fill="#ff9f22"/><path d="m255.996 288.751c-35.225 0-63.781 28.556-63.781 63.781v31.893h63.785v-95.674z" fill="#ffda44"/></g></svg>